# xmcd
# 
# Track frame offsets:
#     150
#     4813
#     16408
#     32726
#     53795
#     72372
#     91202
#     110707
#     128015
#     148427
#     165916
#     186922
#     205415
#     225883
#     245379
#     266740
#     285286
#     306817
#     328081
# 
# Disc length: 4461
# 
# Revision: 2
# Processed by: cddbd v1.5.2PL0 Copyright (c) Steve Scherf et al.
# Submitted via: fre:ac v1.0.17
# 
DISCID=09116b13
DTITLE=Hui Buh - Hui Buh das Schlossgespenst (1) - Der verfluchte Geheimgang
DYEAR=2008
DGENRE=Hörspiel
TTITLE0=Titelmelodie
TTITLE1=An einem Freitag, den 13.
TTITLE2=Stetig störende Sterbliche
TTITLE3=Eine gespenstische Legende
TTITLE4="Fremde seid gewarnt!"
TTITLE5=Ein schauriges Rätsel
TTITLE6=Klitzekleines Missgeschick
TTITLE7=Das gruseligste Grauen
TTITLE8=Meisterspuker im Anmarsch
TTITLE9=Angst vor Gespenstern
TTITLE10=Roswithas Geheimzimmer
TTITLE11=Füchterlicher Fürchtebart
TTITLE12=Gespenstischer Geistersack
TTITLE13=Majestätische Pirouette
TTITLE14=Geistreicher Plan
TTITLE15=Erste Lektion für Graf Morticor
TTITLE16=Königliche Überraschung
TTITLE17=Ein mächtiger Feind
TTITLE18=Rückkehr nach Schloss Burgeck
EXTD=
EXTT0=
EXTT1=
EXTT2=
EXTT3=
EXTT4=
EXTT5=
EXTT6=
EXTT7=
EXTT8=
EXTT9=
EXTT10=
EXTT11=
EXTT12=
EXTT13=
EXTT14=
EXTT15=
EXTT16=
EXTT17=
EXTT18=
PLAYORDER=
